<?xml version="1.0" encoding="utf-8"?>
<!-- Generator: Adobe Illustrator 26.0.0, SVG Export Plug-In . SVG Version: 6.00 Build 0)  -->
<svg version="1.1" id="Layer_1" xmlns="http://www.w3.org/2000/svg" xmlns:xlink="http://www.w3.org/1999/xlink" x="0px" y="0px"
	 viewBox="0 0 188.1 166.5" style="enable-background:new 0 0 188.1 166.5;" xml:space="preserve">
<style type="text/css">
	.st0{fill:none;stroke:#005572;stroke-width:6;stroke-linecap:round;stroke-linejoin:round;}
	.st1{fill:none;stroke:#005572;stroke-width:6;stroke-linecap:square;}
	.st2{fill:none;stroke:#005572;stroke-width:6;stroke-miterlimit:10;}
</style>
<g>
	<path id="Shape_714" class="st0" d="M175,110.8c0-16.7-13.5-30.1-30.2-30.1s-30.1,13.5-30.1,30.2c0,11.6,6.7,22.2,17.2,27.2v7.2
		c0,2.4,1.9,4.3,4.3,4.3l0,0h17.2c2.4,0,4.3-1.9,4.3-4.3l0,0V138C168.3,133.1,175,122.5,175,110.8L175,110.8z"/>
	<path id="Shape_715" class="st0" d="M134.1,110.8c0-1.2-1-2.2-2.1-2.2"/>
	<path id="Shape_716" class="st0" d="M132,113c1.2,0,2.1-1,2.1-2.2"/>
	<path id="Shape_717" class="st0" d="M129.8,110.8c0,1.2,1,2.1,2.1,2.2"/>
	<path id="Shape_718" class="st0" d="M132,108.6c-1.2,0-2.1,1-2.1,2.2"/>
	<path id="Shape_719" class="st0" d="M160,110.8c0-1.2-1-2.2-2.1-2.2"/>
	<path id="Shape_720" class="st0" d="M157.8,113c1.2,0,2.1-1,2.1-2.2"/>
	<path id="Shape_721" class="st0" d="M155.7,110.8c0,1.2,1,2.1,2.1,2.2"/>
	<path id="Shape_722" class="st0" d="M157.8,108.6c-1.2,0-2.1,1-2.1,2.2"/>
	<g id="Page-1">
		<g id="Icons-with-meaning">
			<path id="Path-Copy-2" class="st0" d="M33.5,33.2c1.1,0.1,2,1.1,1.9,2.3c-0.1,1-0.9,1.8-1.9,1.9c-1.2,0-2.1-0.9-2.1-2
				c0,0,0,0,0-0.1c0-0.5,0.2-1.1,0.6-1.5C32.3,33.4,32.9,33.2,33.5,33.2"/>
		</g>
	</g>
	<g id="Page-1-2">
		<g id="Icons-with-meaning-2">
			<path id="Path-Copy-2-2" class="st0" d="M48.2,33.2c1.1,0.1,2,1.1,1.9,2.3c-0.1,1-0.9,1.8-1.9,1.9c-1.2,0-2.1-0.9-2.1-2.1l0,0
				c0-0.5,0.2-1.1,0.6-1.5C47.1,33.4,47.6,33.2,48.2,33.2"/>
		</g>
	</g>
	<g id="Page-1-3">
		<g id="Icons-with-meaning-3">
			<path id="Path-Copy-2-3" class="st0" d="M63.2,33.2c1.2,0,2.1,0.9,2.1,2.1s-0.9,2.1-2.1,2.1c-1.2,0-2.1-0.9-2.1-2.1c0,0,0,0,0,0
				c0-0.5,0.2-1.1,0.6-1.5C62.1,33.4,62.6,33.2,63.2,33.2"/>
		</g>
	</g>
	<g id="Page-1-4">
		<g id="Icons-with-meaning-4">
			<line id="Line-3" class="st1" x1="17.1" y1="48.5" x2="156.6" y2="48.5"/>
		</g>
	</g>
	<g id="Page-1-5">
		<g id="Icons-with-meaning-5">
			<path id="Stroke-1-Copy" class="st0" d="M106.8,128.2H27.1c-5.3,0.2-9.8-4-10-9.3c0,0,0,0,0-0.1V30.3c0.1-5.3,4.6-9.5,9.9-9.4
				c0,0,0,0,0,0h119.6c5.3-0.2,9.8,4,10,9.3c0,0,0,0,0,0v41.8"/>
		</g>
	</g>
	<path class="st0" d="M48.6,63.4h-5.4c-2.6,0-4.6,2.1-4.6,4.7c0,1.7,1,3.3,2.5,4.1l4.9,2.4c2.3,1.1,3.2,3.9,2.1,6.2
		c-0.8,1.6-2.4,2.6-4.1,2.6h-5.4"/>
	<path class="st0" d="M42.3,83.4v3.8"/>
	<path class="st0" d="M44.8,59.7v3.8"/>
	<path class="st0" d="M69.2,63.4h-5.3c-2.6,0-4.6,2.1-4.6,4.7c0,1.7,1,3.3,2.5,4.1l4.9,2.4c2.3,1.1,3.2,3.9,2.1,6.2
		c-0.8,1.6-2.4,2.6-4.1,2.6h-5.4"/>
	<path class="st0" d="M63,83.4v3.8"/>
	<path class="st0" d="M65.4,59.7v3.8"/>
	<path class="st0" d="M89.8,63.4h-5.3c-2.6,0-4.6,2.1-4.6,4.7c0,1.7,1,3.3,2.5,4.1l4.9,2.4c2.3,1.1,3.2,3.9,2.1,6.2
		c-0.8,1.6-2.4,2.6-4.1,2.6h-5.4"/>
	<path class="st0" d="M83.6,83.4v3.8"/>
	<path class="st0" d="M86.1,59.7v3.8"/>
	<path class="st2" d="M40.3,97h50c2.9,0,5.2,2.3,5.2,5.2v6.4c0,2.9-2.3,5.2-5.2,5.2h-50c-2.9,0-5.2-2.3-5.2-5.2v-6.4
		C35.1,99.4,37.4,97,40.3,97z"/>
</g>
</svg>
