<?xml version="1.0" encoding="utf-8"?>
<!-- Generator: Adobe Illustrator 26.0.0, SVG Export Plug-In . SVG Version: 6.00 Build 0)  -->
<svg version="1.1" id="Layer_1" xmlns="http://www.w3.org/2000/svg" xmlns:xlink="http://www.w3.org/1999/xlink" x="0px" y="0px"
	 viewBox="0 0 188.1 166.5" style="enable-background:new 0 0 188.1 166.5;" xml:space="preserve">
<style type="text/css">
	.st0{fill:none;stroke:#005572;stroke-width:6;stroke-linecap:round;stroke-linejoin:round;}
</style>
<g>
	<g id="Computers-Devices-Electronics_Desktop-Computers_monitor">
		<g id="Group_79">
			<g id="monitor">
				<path id="Shape_384" class="st0" d="M108.8,152.6H60.7l4.8-27.7h38.5L108.8,152.6z"/>
				<path id="Shape_385" class="st0" d="M46.3,152.6h77"/>
				<path id="Rectangle-path_50" class="st0" d="M108.8,124.8h-77c-10.6,0-19.2-8.6-19.2-19.2V33.2c0-10.6,8.6-19.2,19.2-19.2h105.9
					c10.6,0,19.3,8.6,19.3,19.3l0,0v28"/>
			</g>
		</g>
	</g>
	<path class="st0" d="M111.8,103.4c0-3.9-3.2-7.1-7.1-7.1h-39c-3.9,0-7.1,3.2-7.1,7.1H111.8z"/>
	<path class="st0" d="M77.9,33.1c17.6,3.3,30.3,18.7,30.3,36.6v19.5"/>
	<path class="st0" d="M65.6,96.3h39c-2.3-4.7-3.6-9.8-3.5-15.1V69.6c0-15.6-11.9-28.6-27.4-30c-1.8-4-5.5-6.7-9.8-7.2
		c-1,0-1.7,0.8-1.8,1.8v8.1c-4.4,3-7.1,7.9-7.1,13.2v16c0,2,1.6,3.5,3.5,3.5l0,0h3.5c2.1,0,4-1.4,4.5-3.4l1.5-5.1
		c0.4-1.3,1.5-2.1,2.8-2.1c2.9,0,5.3-2.4,5.3-5.3c0,6.5-1.8,13-5.3,18.5C67.4,83.1,65.6,89.7,65.6,96.3z"/>
	<path class="st0" d="M118.3,129.9l28.6-52.2c0.8-1.4,2.5-1.9,4-1.2c0.5,0.3,0.9,0.7,1.1,1.2l28.6,52.2c0.8,1.4,0.3,3.2-1.1,4
		c-0.4,0.2-0.9,0.4-1.4,0.4h-57.2c-1.6,0-2.9-1.3-2.9-2.9c0,0,0,0,0,0C117.9,130.8,118.1,130.4,118.3,129.9z"/>
	<path class="st0" d="M149.5,93.1v23.1"/>
	<path class="st0" d="M149.5,123.3c0.4,0,0.7,0.3,0.7,0.7"/>
	<path class="st0" d="M148.7,124c0-0.4,0.3-0.7,0.7-0.7l0,0"/>
	<path class="st0" d="M149.5,124.8c-0.4,0-0.7-0.3-0.7-0.7l0,0"/>
	<path class="st0" d="M150.2,124c0,0.4-0.3,0.7-0.7,0.7"/>
</g>
</svg>
