<?xml version="1.0" encoding="utf-8"?>
<!-- Generator: Adobe Illustrator 26.0.0, SVG Export Plug-In . SVG Version: 6.00 Build 0)  -->
<svg version="1.1" id="Layer_1" xmlns="http://www.w3.org/2000/svg" xmlns:xlink="http://www.w3.org/1999/xlink" x="0px" y="0px"
	 viewBox="0 0 188.1 166.5" style="enable-background:new 0 0 188.1 166.5;" xml:space="preserve">
<style type="text/css">
	.st0{fill:none;stroke:#005572;stroke-width:6;stroke-linecap:round;stroke-linejoin:round;}
	.st1{fill:#025672;stroke:#005572;stroke-width:6;stroke-linecap:round;stroke-linejoin:round;}
</style>
<g>
	<path class="st0" d="M18.9,83.2c0,40.2,32.6,72.8,72.8,72.8s72.8-32.6,72.8-72.8s-32.6-72.8-72.8-72.8C51.5,10.4,18.9,43,18.9,83.2
		L18.9,83.2z"/>
	<path class="st0" d="M41.3,89.6c-3.5-27.8,16.2-53.1,44-56.6c2.1-0.2,4.2-0.4,6.3-0.4c8.9,0,17.6,2.3,25.3,6.8"/>
	<path class="st0" d="M137.4,104.9c-12,25.3-42.2,36.1-67.5,24.1c-6.6-3.1-12.4-7.6-17.1-13.2"/>
	<path class="st0" d="M135.5,57.9c3.4,5.8,5.6,12.3,6.5,19"/>
	<path class="st0" d="M75.8,106.9c-13.1-8.7-16.6-26.4-7.9-39.5c7.2-10.8,20.9-15.4,33.2-11"/>
	<path class="st0" d="M119.4,76.9c2.9,12.8-3.3,26-15.1,31.8"/>
	<path class="st1" d="M91.6,83.2L135.8,39"/>
	<circle class="st1" cx="125.7" cy="133.9" r="1.3"/>
	<circle class="st1" cx="141.9" cy="91.5" r="1.3"/>
	<circle class="st1" cx="90.3" cy="111.4" r="1.3"/>
	<circle class="st1" cx="45.4" cy="103.5" r="1.3"/>
	<circle class="st1" cx="49.4" cy="39" r="1.3"/>
</g>
</svg>
