<?xml version="1.0" encoding="utf-8"?>
<!-- Generator: Adobe Illustrator 26.0.0, SVG Export Plug-In . SVG Version: 6.00 Build 0)  -->
<svg version="1.1" id="Layer_1" xmlns="http://www.w3.org/2000/svg" xmlns:xlink="http://www.w3.org/1999/xlink" x="0px" y="0px"
	 viewBox="0 0 188.1 166.5" style="enable-background:new 0 0 188.1 166.5;" xml:space="preserve">
<style type="text/css">
	.st0{fill:none;}
	.st1{fill:#005572;}
</style>
<g>
	<g id="icon_art_00000141422574727326287540000008964774627553468088_">
		<rect x="18" y="3.8" class="st0" width="151.8" height="151.8"/>
		<g id="Computers-Devices-Electronics_Laptop-Computers_laptop_00000124146552159930703030000013222542233121925531_">
			<g id="Group_108_00000110444004858026385060000007614251895317900941_">
				<g id="laptop_00000130620361089612389430000013994984126612008605_">
					<path class="st1" d="M140.7,120.5H47.1c-1.7,0-3-1.3-3-3V66.8c0-6,4.8-10.8,10.8-10.8h78c6,0,10.8,4.8,10.8,10.8v50.7
						C143.7,119.1,142.3,120.5,140.7,120.5z M50.1,114.5h87.6V66.8c0-2.6-2.1-4.8-4.8-4.8h-78c-2.6,0-4.8,2.1-4.8,4.8l0,0
						L50.1,114.5z"/>
					<path class="st1" d="M144.6,155.6H43.2c-6,0-10.8-4.9-10.8-10.8c0-1.5,0.3-3,0.9-4.4l11-24.2c0.5-1.1,1.6-1.7,2.7-1.7h93.6
						c1.2,0,2.2,0.7,2.7,1.7l11,24.2l0,0c2.4,5.5,0,11.9-5.5,14.3C147.6,155.3,146.1,155.6,144.6,155.6z M49,120.5l-10.2,22.4
						c-1,2.4,0.1,5.2,2.5,6.3c0.6,0.3,1.2,0.4,1.9,0.4h101.4c2.6,0,4.8-2.1,4.8-4.8c0-0.7-0.1-1.3-0.4-1.9l-10.2-22.3L49,120.5
						L49,120.5z"/>
					<path class="st1" d="M101.6,139.6H86.1c-1.4,0-2.6-1.2-2.6-2.6s1.2-2.6,2.6-2.6h15.5c1.4,0,2.6,1.2,2.6,2.6
						S103.1,139.6,101.6,139.6z"/>
				</g>
			</g>
		</g>
		<path class="st1" d="M142.2,61.7H45.6l1.8-3.5c0.9-1.7,3.3-5.8,7.4-7.5c3-1.1,6-2.1,9.2-2.8c1.3-0.3,2.5-0.6,3.4-0.9
			c0.3-0.1,0.4-0.4,0.4-0.7c0.6-9.3,4-39.7,25-42.5c0.7-0.1,1.5-0.1,2.2,0c21,2.8,24.5,33.2,25,42.5c0,0.3,0.2,0.6,0.4,0.7
			c0.9,0.3,2.1,0.6,3.4,0.9c3.1,0.7,6.2,1.7,9.2,2.8c4.1,1.7,6.5,5.8,7.4,7.5L142.2,61.7z M89.3,57.2l4.8,3.2l4.7-3
			c4.6-3,6-5.6,6.9-7.4c0,0,0-0.1,0-0.1l0.1-0.2c0.6-2.3,0.9-4.8,0.9-7.2c0-0.4,0-1.3,0-1.3c0-7.5-1.8-13.2-5.5-16.9
			c-1.9-2.1-4.5-3.4-7.3-3.8c-3.2,0.4-6.1,2-8.3,4.4c-3.6,3.9-5.1,9.8-4.5,17.5c0.1,1.2,0.2,2.4,0.4,3.5v0.3
			c0.3,2.5,1.3,4.9,2.9,6.8C85.9,54.6,87.5,56,89.3,57.2z M106.7,57h27c-0.7-0.8-1.6-1.4-2.6-1.9c-2.8-1.1-5.6-1.9-8.5-2.6
			c-1.3-0.3-2.6-0.7-3.6-1c-2.2-0.7-3.7-2.7-3.8-5c-0.2-3.7-1.1-13.1-4.3-21.6c-3.7-9.9-9.3-15.5-16.6-16.4c-0.3,0-0.7,0-1,0
			c-7.3,1-12.9,6.5-16.6,16.4c-3.2,8.5-4.1,18-4.3,21.6c-0.1,2.3-1.6,4.2-3.8,5c-1,0.3-2.3,0.6-3.6,1c-2.9,0.7-5.7,1.5-8.5,2.6
			c-1,0.4-1.9,1.1-2.6,1.9h27.8c-0.3-0.3-0.6-0.7-0.9-1c-2.2-2.6-3.5-5.8-3.9-9.2v-0.2c-0.2-1.2-0.3-2.5-0.5-3.8
			c-0.8-9,1.1-16.2,5.7-21.1s10-5.9,11.7-5.9c1.9,0,6.7,1.1,10.8,5.2c4.6,4.6,6.9,11.5,6.9,20.3c0,0,0,1,0,1.4
			c-0.1,2.7-0.4,5.4-1.1,8.1c-0.1,0.5-0.3,1-0.5,1.5C109.1,53.9,108,55.5,106.7,57z"/>
		<path class="st1" d="M108.6,33.3c-0.4-0.1-4.9-1.1-14.4-1h-1.8c-9.4,0-13.6,0.8-13.6,0.8v7.8c12.5,3.7,14-1.7,14-1.7s0.5-1.5,1,0
			c0,0,1.5,5.4,14,1.7l1-0.3L108.6,33.3z M89.7,38.5c-1.6,1.8-8,0.6-8.4,0c-0.2-0.6-0.1-1.2,0.1-1.7c0.2-0.7,0.7-1.2,1.4-1.3
			C91.9,34.1,91.3,36.8,89.7,38.5z M105.2,38.5c-0.4,0.6-6.8,1.8-8.4,0c-1.6-1.8-2.2-4.4,6.9-3c0.7,0.1,1.2,0.6,1.4,1.3
			C105.3,37.3,105.3,37.9,105.2,38.5z"/>
		<path class="st1" d="M93.9,104.3c-6.6,0-11.9-5.3-11.9-11.9v-4.9c0-6.6,5.3-11.9,11.9-11.9s11.9,5.3,11.9,11.9v4.9
			C105.8,98.9,100.5,104.3,93.9,104.3z M93.9,79.8c-4.2,0-7.6,3.4-7.6,7.6v4.9c0,4.2,3.4,7.6,7.6,7.6s7.6-3.4,7.6-7.6l0,0v-4.9
			C101.5,83.2,98.1,79.8,93.9,79.8z"/>
		<path class="st1" d="M103.7,89.6H84.1c-1.2,0-2.2-1-2.2-2.2s1-2.2,2.2-2.2h19.6c1.2,0,2.2,1,2.2,2.2S104.8,89.6,103.7,89.6z"/>
		<path class="st1" d="M84.1,94.5h-4.9c-1.2,0-2.2-1-2.2-2.2s1-2.2,2.2-2.2h4.9c1.2,0,2.2,1,2.2,2.2C86.3,93.5,85.3,94.5,84.1,94.5
			L84.1,94.5z"/>
		<path class="st1" d="M108.5,94.5h-4.9c-1.2,0-2.2-1-2.2-2.2s1-2.2,2.2-2.2h4.9c1.2,0,2.2,1,2.2,2.2
			C110.7,93.5,109.7,94.5,108.5,94.5z"/>
		<path class="st1" d="M81.6,106.7c-0.6,0-1.1-0.2-1.5-0.6c-0.8-0.8-0.8-2.2,0-3c0,0,0,0,0,0l5.3-5.3c0.9-0.8,2.2-0.8,3.1,0.1
			c0.8,0.8,0.8,2.2,0,3l-5.3,5.3C82.8,106.5,82.2,106.7,81.6,106.7z"/>
		<path class="st1" d="M85.8,84c-0.6,0-1.1-0.2-1.5-0.6l-6.6-6.6c-0.8-0.8-0.8-2.2,0-3.1s2.2-0.8,3.1,0l6.6,6.6
			c0.8,0.8,0.8,2.2,0,3.1C87,83.8,86.4,84,85.8,84z"/>
		<path class="st1" d="M106.1,106.7c-0.6,0-1.1-0.2-1.5-0.6l-5.3-5.3c-0.8-0.9-0.8-2.2,0.1-3.1c0.8-0.8,2.2-0.8,3,0l5.3,5.3
			c0.8,0.8,0.8,2.2,0,3c0,0,0,0,0,0C107.2,106.5,106.7,106.7,106.1,106.7z"/>
		<path class="st1" d="M101.9,84c-0.6,0-1.1-0.2-1.5-0.6c-0.8-0.8-0.8-2.2,0-3.1l6.6-6.6c0.8-0.8,2.2-0.8,3.1,0s0.8,2.2,0,3.1
			l-6.6,6.6C103,83.8,102.5,84,101.9,84z"/>
	</g>
</g>
</svg>
